<mxfile host="app.diagrams.net" agent="Mozilla/5.0 (Windows NT 10.0; Win64; x64) AppleWebKit/537.36 (KHTML, like Gecko) Chrome/128.0.0.0 Safari/537.36 Edg/128.0.0.0" version="24.7.12">
  <diagram name="Page-1" id="gNU4SBnEhqvgMU99vx9V">
    <mxGraphModel dx="829" dy="560" grid="1" gridSize="10" guides="1" tooltips="1" connect="1" arrows="1" fold="1" page="1" pageScale="1" pageWidth="1400" pageHeight="850" math="0" shadow="0">
      <root>
        <mxCell id="0" />
        <mxCell id="1" parent="0" />
        <mxCell id="CkRWJTQtqAVXWxqDL5rZ-25" value="&lt;h1 style=&quot;margin-top: 0px;&quot;&gt;Azure Email&lt;/h1&gt;" style="text;html=1;whiteSpace=wrap;overflow=hidden;rounded=0;" vertex="1" parent="1">
          <mxGeometry x="515" y="34" width="180" height="120" as="geometry" />
        </mxCell>
        <mxCell id="CkRWJTQtqAVXWxqDL5rZ-26" value="" style="group" vertex="1" connectable="0" parent="1">
          <mxGeometry x="300" y="74" width="586" height="366" as="geometry" />
        </mxCell>
        <mxCell id="CkRWJTQtqAVXWxqDL5rZ-8" style="edgeStyle=orthogonalEdgeStyle;rounded=0;orthogonalLoop=1;jettySize=auto;html=1;" edge="1" parent="CkRWJTQtqAVXWxqDL5rZ-26" source="CkRWJTQtqAVXWxqDL5rZ-1" target="CkRWJTQtqAVXWxqDL5rZ-7">
          <mxGeometry relative="1" as="geometry" />
        </mxCell>
        <mxCell id="CkRWJTQtqAVXWxqDL5rZ-1" value="" style="sketch=0;points=[[0,0,0],[0.25,0,0],[0.5,0,0],[0.75,0,0],[1,0,0],[0,1,0],[0.25,1,0],[0.5,1,0],[0.75,1,0],[1,1,0],[0,0.25,0],[0,0.5,0],[0,0.75,0],[1,0.25,0],[1,0.5,0],[1,0.75,0]];outlineConnect=0;fontColor=#232F3E;fillColor=#7AA116;strokeColor=#ffffff;dashed=0;verticalLabelPosition=bottom;verticalAlign=top;align=center;html=1;fontSize=12;fontStyle=0;aspect=fixed;shape=mxgraph.aws4.resourceIcon;resIcon=mxgraph.aws4.iot_things_graph;" vertex="1" parent="CkRWJTQtqAVXWxqDL5rZ-26">
          <mxGeometry x="192" y="151" width="68" height="68" as="geometry" />
        </mxCell>
        <mxCell id="CkRWJTQtqAVXWxqDL5rZ-3" style="edgeStyle=orthogonalEdgeStyle;rounded=0;orthogonalLoop=1;jettySize=auto;html=1;" edge="1" parent="CkRWJTQtqAVXWxqDL5rZ-26" source="CkRWJTQtqAVXWxqDL5rZ-2" target="CkRWJTQtqAVXWxqDL5rZ-1">
          <mxGeometry relative="1" as="geometry" />
        </mxCell>
        <mxCell id="CkRWJTQtqAVXWxqDL5rZ-2" value="" style="image;aspect=fixed;html=1;points=[];align=center;fontSize=12;image=img/lib/azure2/identity/Azure_AD_Domain_Services.svg;" vertex="1" parent="CkRWJTQtqAVXWxqDL5rZ-26">
          <mxGeometry x="30" y="153" width="70" height="64" as="geometry" />
        </mxCell>
        <mxCell id="CkRWJTQtqAVXWxqDL5rZ-6" style="edgeStyle=orthogonalEdgeStyle;rounded=0;orthogonalLoop=1;jettySize=auto;html=1;" edge="1" parent="CkRWJTQtqAVXWxqDL5rZ-26" source="CkRWJTQtqAVXWxqDL5rZ-5" target="CkRWJTQtqAVXWxqDL5rZ-2">
          <mxGeometry relative="1" as="geometry" />
        </mxCell>
        <mxCell id="CkRWJTQtqAVXWxqDL5rZ-5" value="" style="sketch=0;pointerEvents=1;shadow=0;dashed=0;html=1;strokeColor=none;fillColor=#505050;labelPosition=center;verticalLabelPosition=bottom;verticalAlign=top;outlineConnect=0;align=center;shape=mxgraph.office.users.tenant_admin;" vertex="1" parent="CkRWJTQtqAVXWxqDL5rZ-26">
          <mxGeometry x="37" y="36" width="56" height="58" as="geometry" />
        </mxCell>
        <mxCell id="CkRWJTQtqAVXWxqDL5rZ-10" value="" style="edgeStyle=orthogonalEdgeStyle;rounded=0;orthogonalLoop=1;jettySize=auto;html=1;" edge="1" parent="CkRWJTQtqAVXWxqDL5rZ-26" source="CkRWJTQtqAVXWxqDL5rZ-7" target="CkRWJTQtqAVXWxqDL5rZ-9">
          <mxGeometry relative="1" as="geometry" />
        </mxCell>
        <mxCell id="CkRWJTQtqAVXWxqDL5rZ-7" value="" style="image;aspect=fixed;html=1;points=[];align=center;fontSize=12;image=img/lib/azure2/iot/Function_Apps.svg;" vertex="1" parent="CkRWJTQtqAVXWxqDL5rZ-26">
          <mxGeometry x="336" y="155" width="68" height="60" as="geometry" />
        </mxCell>
        <mxCell id="CkRWJTQtqAVXWxqDL5rZ-12" value="" style="edgeStyle=orthogonalEdgeStyle;rounded=0;orthogonalLoop=1;jettySize=auto;html=1;" edge="1" parent="CkRWJTQtqAVXWxqDL5rZ-26" source="CkRWJTQtqAVXWxqDL5rZ-9" target="CkRWJTQtqAVXWxqDL5rZ-11">
          <mxGeometry relative="1" as="geometry" />
        </mxCell>
        <mxCell id="CkRWJTQtqAVXWxqDL5rZ-9" value="" style="verticalLabelPosition=bottom;html=1;verticalAlign=top;align=center;strokeColor=none;fillColor=#00BEF2;shape=mxgraph.azure.storage_blob;" vertex="1" parent="CkRWJTQtqAVXWxqDL5rZ-26">
          <mxGeometry x="485" y="153" width="70" height="63.5" as="geometry" />
        </mxCell>
        <mxCell id="CkRWJTQtqAVXWxqDL5rZ-11" value="" style="image;aspect=fixed;html=1;points=[];align=center;fontSize=12;image=img/lib/azure2/ai_machine_learning/Cognitive_Services.svg;" vertex="1" parent="CkRWJTQtqAVXWxqDL5rZ-26">
          <mxGeometry x="486" y="266" width="68" height="48" as="geometry" />
        </mxCell>
        <mxCell id="CkRWJTQtqAVXWxqDL5rZ-13" value="" style="image;aspect=fixed;html=1;points=[];align=center;fontSize=12;image=img/lib/azure2/other/Azure_Monitor_Dashboard.svg;" vertex="1" parent="CkRWJTQtqAVXWxqDL5rZ-26">
          <mxGeometry x="259" y="276" width="68" height="63.2" as="geometry" />
        </mxCell>
        <mxCell id="CkRWJTQtqAVXWxqDL5rZ-15" value="Register" style="outlineConnect=0;gradientColor=none;html=1;whiteSpace=wrap;fontSize=12;fontStyle=0;strokeColor=#858B94;fillColor=none;verticalAlign=top;align=center;fontColor=#858B94;dashed=1;spacingTop=3;" vertex="1" parent="CkRWJTQtqAVXWxqDL5rZ-26">
          <mxGeometry width="130" height="366" as="geometry" />
        </mxCell>
        <mxCell id="CkRWJTQtqAVXWxqDL5rZ-16" value="Fetch Email" style="outlineConnect=0;gradientColor=none;html=1;whiteSpace=wrap;fontSize=12;fontStyle=0;strokeColor=#858B94;fillColor=none;verticalAlign=top;align=center;fontColor=#858B94;dashed=1;spacingTop=3;" vertex="1" parent="CkRWJTQtqAVXWxqDL5rZ-26">
          <mxGeometry x="140" width="300" height="236" as="geometry" />
        </mxCell>
        <mxCell id="CkRWJTQtqAVXWxqDL5rZ-17" value="Processing" style="outlineConnect=0;gradientColor=none;html=1;whiteSpace=wrap;fontSize=12;fontStyle=0;strokeColor=#858B94;fillColor=none;verticalAlign=top;align=center;fontColor=#858B94;dashed=1;spacingTop=3;" vertex="1" parent="CkRWJTQtqAVXWxqDL5rZ-26">
          <mxGeometry x="456" width="130" height="366" as="geometry" />
        </mxCell>
        <mxCell id="CkRWJTQtqAVXWxqDL5rZ-18" value="Monitoring" style="outlineConnect=0;gradientColor=none;html=1;whiteSpace=wrap;fontSize=12;fontStyle=0;strokeColor=#858B94;fillColor=none;verticalAlign=top;align=center;fontColor=#858B94;dashed=1;spacingTop=3;" vertex="1" parent="CkRWJTQtqAVXWxqDL5rZ-26">
          <mxGeometry x="140" y="242" width="300" height="124" as="geometry" />
        </mxCell>
        <mxCell id="CkRWJTQtqAVXWxqDL5rZ-19" value="Azure Monitor" style="text;html=1;align=center;verticalAlign=middle;whiteSpace=wrap;rounded=0;" vertex="1" parent="CkRWJTQtqAVXWxqDL5rZ-26">
          <mxGeometry x="249" y="336" width="88" height="30" as="geometry" />
        </mxCell>
        <mxCell id="CkRWJTQtqAVXWxqDL5rZ-20" value="Azure Cognito" style="text;html=1;align=center;verticalAlign=middle;whiteSpace=wrap;rounded=0;" vertex="1" parent="CkRWJTQtqAVXWxqDL5rZ-26">
          <mxGeometry x="490" y="314" width="60" height="30" as="geometry" />
        </mxCell>
        <mxCell id="CkRWJTQtqAVXWxqDL5rZ-21" value="Blob Storage" style="text;html=1;align=center;verticalAlign=middle;whiteSpace=wrap;rounded=0;" vertex="1" parent="CkRWJTQtqAVXWxqDL5rZ-26">
          <mxGeometry x="491" y="121" width="60" height="30" as="geometry" />
        </mxCell>
        <mxCell id="CkRWJTQtqAVXWxqDL5rZ-22" value="App Function" style="text;html=1;align=center;verticalAlign=middle;whiteSpace=wrap;rounded=0;" vertex="1" parent="CkRWJTQtqAVXWxqDL5rZ-26">
          <mxGeometry x="344" y="123" width="60" height="30" as="geometry" />
        </mxCell>
        <mxCell id="CkRWJTQtqAVXWxqDL5rZ-23" value="Graph API" style="text;html=1;align=center;verticalAlign=middle;whiteSpace=wrap;rounded=0;" vertex="1" parent="CkRWJTQtqAVXWxqDL5rZ-26">
          <mxGeometry x="195" y="125" width="60" height="30" as="geometry" />
        </mxCell>
        <mxCell id="CkRWJTQtqAVXWxqDL5rZ-24" value="Azure AD" style="text;html=1;align=center;verticalAlign=middle;whiteSpace=wrap;rounded=0;" vertex="1" parent="CkRWJTQtqAVXWxqDL5rZ-26">
          <mxGeometry x="33" y="215" width="60" height="30" as="geometry" />
        </mxCell>
      </root>
    </mxGraphModel>
  </diagram>
</mxfile>
